<svg xmlns="http://www.w3.org/2000/svg" viewBox="0 0 64 64">
  <defs>
    <linearGradient id="dv-tile" x1="0" y1="0" x2="0" y2="64" gradientUnits="userSpaceOnUse">
      <stop offset="0" stop-color="#2b3d4c"/>
      <stop offset="1" stop-color="#141d27"/>
    </linearGradient>
    <radialGradient id="dv-globe" cx="24" cy="24" r="24" gradientUnits="userSpaceOnUse">
      <stop offset="0" stop-color="#8fd0dc"/>
      <stop offset="0.45" stop-color="#3f8ea3"/>
      <stop offset="1" stop-color="#143a4d"/>
    </radialGradient>
    <linearGradient id="dv-ring-front" x1="-25" y1="0" x2="25" y2="0" gradientUnits="userSpaceOnUse">
      <stop offset="0" stop-color="#ff7a2f" stop-opacity="0.35"/>
      <stop offset="0.45" stop-color="#ff6a1f"/>
      <stop offset="1" stop-color="#ffc15a"/>
    </linearGradient>
    <linearGradient id="dv-ring-back" x1="-25" y1="0" x2="25" y2="0" gradientUnits="userSpaceOnUse">
      <stop offset="0" stop-color="#d9481a"/>
      <stop offset="1" stop-color="#d9481a" stop-opacity="0.1"/>
    </linearGradient>
    <radialGradient id="dv-spark">
      <stop offset="0" stop-color="#fff6d8"/>
      <stop offset="0.35" stop-color="#ffd27a"/>
      <stop offset="1" stop-color="#ff8a2a" stop-opacity="0"/>
    </radialGradient>
    <radialGradient id="dv-shade" cx="22" cy="22" r="30" gradientUnits="userSpaceOnUse">
      <stop offset="0.55" stop-color="#0b1d28" stop-opacity="0"/>
      <stop offset="1" stop-color="#0b1d28" stop-opacity="0.55"/>
    </radialGradient>
    <clipPath id="dv-clip"><rect width="64" height="64" rx="15"/></clipPath>
  </defs>
  <g clip-path="url(#dv-clip)">
    <rect width="64" height="64" fill="url(#dv-tile)"/>
    <g transform="translate(32 33) rotate(-24) scale(1.06)">
      <path d="M-27 -1A27 12 0 0 1 26 0A24 7 0 0 0 -27 -1Z" fill="url(#dv-ring-back)"/>
    </g>
    <circle cx="32" cy="33" r="16.5" fill="url(#dv-globe)"/>
    <circle cx="26" cy="27" r="2.1" fill="#123646" opacity="0.35"/>
    <circle cx="36.5" cy="25" r="1.3" fill="#123646" opacity="0.35"/>
    <circle cx="38" cy="38.5" r="2.6" fill="#123646" opacity="0.3"/>
    <circle cx="27.5" cy="40" r="1.2" fill="#123646" opacity="0.3"/>
    <circle cx="32" cy="33" r="16.5" fill="url(#dv-shade)"/>
    <ellipse cx="25.5" cy="24.5" rx="4" ry="2.4" transform="rotate(-35 25.5 24.5)" fill="#fff" opacity="0.28"/>
    <g transform="translate(32 33) rotate(-24) scale(1.06)">
      <path d="M-27 -1A27 14 0 0 0 26 0A24 5.5 0 0 1 -27 -1Z" fill="url(#dv-ring-front)"/>
      <circle cx="26" cy="0" r="7.5" fill="url(#dv-spark)"/>
      <circle cx="26" cy="0" r="2.8" fill="#fff4d6"/>
    </g>
  </g>
</svg>
